nColumns=19
nRows=178
DataType=double
version=3
OpenSimVersion=4.1
endheader
time	ground_force_calcn_r_vx	ground_force_calcn_r_vy	ground_force_calcn_r_vz	ground_force_calcn_r_px	ground_force_calcn_r_py	ground_force_calcn_r_pz	ground_force_calcn_r_mx	ground_force_calcn_r_my	ground_force_calcn_r_mz	ground_force_calcn_l_vx	ground_force_calcn_l_vy	ground_force_calcn_l_vz	ground_force_calcn_l_px	ground_force_calcn_l_py	ground_force_calcn_l_pz	ground_force_calcn_l_mx	ground_force_calcn_l_my	ground_force_calcn_l_mz
1.06	0	0	0	0	0	0	0	0	0	0	0	0	0	0	0	0	0	0
1.065	0	0	0	0	0	0	0	0	0	0	0	0	0	0	0	0	0	0
1.07	0	0	0	0	0	0	0	0	0	0	0	0	0	0	0	0	0	0
1.075	0	0	0	0	0	0	0	0	0	0	0	0	0	0	0	0	0	0
1.08	0	0	0	0	0	0	0	0	0	0	0	0	0	0	0	0	0	0
1.085	0	0	0	0	0	0	0	0	0	0	0	0	0	0	0	0	0	0
1.09	0	0	0	0	0	0	0	0	0	0	0	0	0	0	0	0	0	0
1.095	0	0	0	0	0	0	0	0	0	0	0	0	0	0	0	0	0	0
1.1	0	0	0	0	0	0	0	0	0	0	0	0	0	0	0	0	0	0
1.105	0	0	0	0	0	0	0	0	0	0	0	0	0	0	0	0	0	0
1.11	0	0	0	0	0	0	0	0	0	0	0	0	0	0	0	0	0	0
1.115	0	0	0	0	0	0	0	0	0	0	0	0	0	0	0	0	0	0
1.12	0	0	0	0	0	0	0	0	0	0	0	0	0	0	0	0	0	0
1.125	0	0	0	0	0	0	0	0	0	0	0	0	0	0	0	0	0	0
1.13	0	0	0	0	0	0	0	0	0	0	0	0	0	0	0	0	0	0
1.135	0	0	0	0	0	0	0	0	0	-56.8288	73.0897	-1.98315	1.28063	0	-0.33282	2.16508	-2.78459	0.0755544
1.14	0	0	0	0	0	0	0	0	0	-130.827	230.21	14.9779	1.097	0	-0.406078	2.39952	-4.22231	-0.274712
1.145	0	0	0	0	0	0	0	0	0	-225.683	470.446	49.7325	1.10259	0	-0.393789	1.33648	-2.78594	-0.294512
1.15	0	0	0	0	0	0	0	0	0	-317.095	770.959	106.809	1.09869	0	-0.384614	-1.8254	4.43812	0.614857
1.155	0	0	0	0	0	0	0	0	0	-371.341	1100.76	170.57	1.09059	0	-0.374461	-4.84238	14.3542	2.22427
1.16	0	0	0	0	0	0	0	0	0	-381.171	1459.05	211.641	1.07374	0	-0.362749	-3.92271	15.0153	2.17804
1.165	0	0	0	0	0	0	0	0	0	-376.59	1848.46	209.88	1.04461	0	-0.351769	-0.38898	1.90928	0.216785
1.17	0	0	0	0	0	0	0	0	0	-374.096	2239.84	155.532	1.01444	0	-0.344124	2.29408	-13.7354	-0.953772
1.175	0	0	0	0	0	0	0	0	0	-373.193	2585.03	59.6512	0.991467	0	-0.3392	3.1202	-21.613	-0.498734
1.18	0	0	0	0	0	0	0	0	0	-376.231	2850.24	-53.5308	0.973072	0	-0.336078	2.93503	-22.2351	0.417601
1.185	0	0	0	0	0	0	0	0	0	-373.318	3019.77	-152.242	0.955303	0	-0.333706	2.48145	-20.0725	1.01196
1.19	0	0	0	0	0	0	0	0	0	-349.448	3099.36	-218.495	0.934008	0	-0.331994	2.21375	-19.6344	1.38416
1.195	0	0	0	0	0	0	0	0	0	-292.411	3110.44	-246.792	0.905092	0	-0.330919	1.94297	-20.6678	1.63985
1.2	0	0	0	0	0	0	0	0	0	-191.299	3075.71	-246.031	0.86874	0	-0.330787	1.11947	-17.9989	1.43976
1.205	0	0	0	0	0	0	0	0	0	-56.8352	3014.11	-228.872	0.82911	0	-0.33096	0.179187	-9.50274	0.721577
1.21	0	0	0	0	0	0	0	0	0	80.1503	2932.39	-208.12	0.791097	0	-0.330841	-0.0272173	-0.995775	0.0706729
1.215	0	0	0	0	0	0	0	0	0	196.824	2821	-189.71	0.757582	0	-0.330348	0.182337	2.61335	-0.175746
1.22	0	0	0	0	0	0	0	0	0	291.621	2672.9	-168.98	0.729518	0	-0.329582	0.173803	1.59302	-0.10071
1.225	0	0	0	0	0	0	0	0	0	369.234	2488.91	-136.903	0.706071	0	-0.328558	-0.743846	-5.01407	0.275799
1.23	0	0	0	0	0	0	0	0	0	427.934	2268	-94.3681	0.685214	0	-0.327872	-3.66519	-19.4251	0.808247
1.235	0	0	0	0	0	0	0	0	0	464.961	2003.87	-52.9236	0.663432	0	-0.328577	-9.22405	-39.7535	1.04992
1.24	0	0	0	0	0	0	0	0	0	482.054	1693.14	-27.1833	0.634195	0	-0.331839	-16.0513	-56.3777	0.905142
1.245	0	0	0	0	0	0	0	0	0	486.704	1342.29	-26.4775	0.586638	0	-0.337852	-19.8526	-54.752	1.08002
1.25	0	0	0	0	0	0	0	0	0	481.854	972.195	-50.77	0.504495	0	-0.342188	-13.3043	-26.8429	1.40179
1.255	0	0	0	0	0	0	0	0	0	460.48	618.719	-89.6004	0.367522	0	-0.322845	11.8303	15.8957	-2.30194
1.26	0	0	0	0	0	0	0	0	0	415.217	324.54	-124.944	0.162681	0	-0.215941	49.4888	38.6812	-14.8919
1.265	0	0	0	0	0	0	0	0	0	343.33	121.256	-135.825	0.367052	0	0.0969567	55.0053	19.4266	-21.7607
1.27	0	0	0	0	0	0	0	0	0	0	0	0	0	0	0	0	0	0
1.275	0	0	0	0	0	0	0	0	0	0	0	0	0	0	0	0	0	0
1.28	0	0	0	0	0	0	0	0	0	0	0	0	0	0	0	0	0	0
1.285	0	0	0	0	0	0	0	0	0	0	0	0	0	0	0	0	0	0
1.29	0	0	0	0	0	0	0	0	0	0	0	0	0	0	0	0	0	0
1.295	0	0	0	0	0	0	0	0	0	0	0	0	0	0	0	0	0	0
1.3	0	0	0	0	0	0	0	0	0	0	0	0	0	0	0	0	0	0
1.305	0	0	0	0	0	0	0	0	0	0	0	0	0	0	0	0	0	0
1.31	0	0	0	0	0	0	0	0	0	0	0	0	0	0	0	0	0	0
1.315	0	0	0	0	0	0	0	0	0	0	0	0	0	0	0	0	0	0
1.32	0	0	0	0	0	0	0	0	0	0	0	0	0	0	0	0	0	0
1.325	0	0	0	0	0	0	0	0	0	0	0	0	0	0	0	0	0	0
1.33	0	0	0	0	0	0	0	0	0	0	0	0	0	0	0	0	0	0
1.335	0	0	0	0	0	0	0	0	0	0	0	0	0	0	0	0	0	0
1.34	0	0	0	0	0	0	0	0	0	0	0	0	0	0	0	0	0	0
1.345	0	0	0	0	0	0	0	0	0	0	0	0	0	0	0	0	0	0
1.35	0	0	0	0	0	0	0	0	0	0	0	0	0	0	0	0	0	0
1.355	0	0	0	0	0	0	0	0	0	0	0	0	0	0	0	0	0	0
1.36	0	0	0	0	0	0	0	0	0	0	0	0	0	0	0	0	0	0
1.365	0	0	0	0	0	0	0	0	0	0	0	0	0	0	0	0	0	0
1.37	0	0	0	0	0	0	0	0	0	0	0	0	0	0	0	0	0	0
1.375	0	0	0	0	0	0	0	0	0	0	0	0	0	0	0	0	0	0
1.38	0	0	0	0	0	0	0	0	0	0	0	0	0	0	0	0	0	0
1.385	0	0	0	0	0	0	0	0	0	0	0	0	0	0	0	0	0	0
1.39	0	0	0	0	0	0	0	0	0	0	0	0	0	0	0	0	0	0
1.395	-49.2148	93.0197	-12.3615	1.27021	0	-0.264631	-2.3789	4.49631	-0.597519	0	0	0	0	0	0	0	0	0
1.4	-111.078	283.09	-64.054	1.06703	0	-0.214367	-0.611792	1.55919	-0.352794	0	0	0	0	0	0	0	0	0
1.405	-193.804	571.026	-136.898	1.06233	0	-0.228469	0.107186	-0.315813	0.075713	0	0	0	0	0	0	0	0	0
1.41	-268.795	933.478	-218.595	1.06264	0	-0.239888	0.587473	-2.04019	0.477757	0	0	0	0	0	0	0	0	0
1.415	-302.021	1342.66	-286.957	1.06212	0	-0.250101	0.544212	-2.41934	0.517069	0	0	0	0	0	0	0	0	0
1.42	-295.743	1782.11	-311.442	1.05645	0	-0.25906	-0.90509	5.45394	-0.953133	0	0	0	0	0	0	0	0	0
1.425	-297.318	2216.33	-272.237	1.04452	0	-0.26561	-2.77412	20.6794	-2.5401	0	0	0	0	0	0	0	0	0
1.43	-342.78	2577.56	-174.995	1.03228	0	-0.269603	-3.97076	29.8584	-2.02714	0	0	0	0	0	0	0	0	0
1.435	-423.028	2818.15	-41.4526	1.02296	0	-0.271632	-4.11103	27.3871	-0.402841	0	0	0	0	0	0	0	0	0
1.44	-500.936	2951.92	104.293	1.0132	0	-0.272411	-3.66758	21.6123	0.763575	0	0	0	0	0	0	0	0	0
1.445	-542.082	3021.04	229.489	0.998505	0	-0.272816	-3.44598	19.2046	1.45885	0	0	0	0	0	0	0	0	0
1.45	-533.504	3053.22	300.367	0.976346	0	-0.272968	-2.61438	14.962	1.47192	0	0	0	0	0	0	0	0	0
1.455	-472.827	3056.55	299.43	0.946189	0	-0.273011	-0.5477	3.54055	0.346844	0	0	0	0	0	0	0	0	0
1.46	-359.492	3033.12	239.337	0.908351	0	-0.273672	0.872269	-7.35954	-0.580725	0	0	0	0	0	0	0	0	0
1.465	-205.098	2986.92	158.278	0.866105	0	-0.27507	0.478983	-6.97562	-0.369642	0	0	0	0	0	0	0	0	0
1.47	-42.7607	2916.88	91.6195	0.824881	0	-0.276213	-0.0496776	3.3887	0.10644	0	0	0	0	0	0	0	0	0
1.475	95.9229	2813.66	48.235	0.787802	0	-0.276639	0.482509	14.1532	0.242631	0	0	0	0	0	0	0	0	0
1.48	207.923	2671.42	17.561	0.755776	0	-0.276616	1.61975	20.8107	0.136802	0	0	0	0	0	0	0	0	0
1.485	304.845	2490.46	-13.8675	0.728076	0	-0.276507	3.3808	27.6199	-0.153794	0	0	0	0	0	0	0	0	0
1.49	388.707	2266.08	-48.7869	0.702515	0	-0.27596	6.70475	39.0872	-0.841518	0	0	0	0	0	0	0	0	0
1.495	447.416	1992.43	-77.3362	0.676275	0	-0.274567	11.77	52.4143	-2.03446	0	0	0	0	0	0	0	0	0
1.5	474.355	1677.08	-77.1091	0.646746	0	-0.272324	16.0452	56.7277	-2.60823	0	0	0	0	0	0	0	0	0
1.505	475.759	1340.27	-30.1087	0.610313	0	-0.271094	14.6981	41.4064	-0.930177	0	0	0	0	0	0	0	0	0
1.51	456.416	1000.48	56.4971	0.559597	0	-0.277901	2.02855	4.44664	0.251102	0	0	0	0	0	0	0	0	0
1.515	415.982	674.987	148.591	0.48871	0	-0.31271	-25.5697	-41.4902	-9.13362	0	0	0	0	0	0	0	0	0
1.52	357.502	389.312	203.041	0.40088	0	-0.416603	-58.2929	-63.4797	-33.107	0	0	0	0	0	0	0	0	0
1.525	291.236	174.5	192.554	0.438305	0	-0.635035	-65.2975	-39.1244	-43.1723	0	0	0	0	0	0	0	0	0
1.53	223.41	41.7986	119.469	0.723156	0	-0.927824	-27.8804	-5.21625	-14.909	0	0	0	0	0	0	0	0	0
1.535	0	0	0	0	0	0	0	0	0	0	0	0	0	0	0	0	0	0
1.54	0	0	0	0	0	0	0	0	0	0	0	0	0	0	0	0	0	0
1.545	0	0	0	0	0	0	0	0	0	0	0	0	0	0	0	0	0	0
1.55	0	0	0	0	0	0	0	0	0	0	0	0	0	0	0	0	0	0
1.555	0	0	0	0	0	0	0	0	0	0	0	0	0	0	0	0	0	0
1.56	0	0	0	0	0	0	0	0	0	0	0	0	0	0	0	0	0	0
1.565	0	0	0	0	0	0	0	0	0	0	0	0	0	0	0	0	0	0
1.57	0	0	0	0	0	0	0	0	0	0	0	0	0	0	0	0	0	0
1.575	0	0	0	0	0	0	0	0	0	0	0	0	0	0	0	0	0	0
1.58	0	0	0	0	0	0	0	0	0	0	0	0	0	0	0	0	0	0
1.585	0	0	0	0	0	0	0	0	0	0	0	0	0	0	0	0	0	0
1.59	0	0	0	0	0	0	0	0	0	0	0	0	0	0	0	0	0	0
1.595	0	0	0	0	0	0	0	0	0	0	0	0	0	0	0	0	0	0
1.6	0	0	0	0	0	0	0	0	0	0	0	0	0	0	0	0	0	0
1.605	0	0	0	0	0	0	0	0	0	0	0	0	0	0	0	0	0	0
1.61	0	0	0	0	0	0	0	0	0	0	0	0	0	0	0	0	0	0
1.615	0	0	0	0	0	0	0	0	0	0	0	0	0	0	0	0	0	0
1.62	0	0	0	0	0	0	0	0	0	0	0	0	0	0	0	0	0	0
1.625	0	0	0	0	0	0	0	0	0	0	0	0	0	0	0	0	0	0
1.63	0	0	0	0	0	0	0	0	0	0	0	0	0	0	0	0	0	0
1.635	0	0	0	0	0	0	0	0	0	0	0	0	0	0	0	0	0	0
1.64	0	0	0	0	0	0	0	0	0	0	0	0	0	0	0	0	0	0
1.645	0	0	0	0	0	0	0	0	0	0	0	0	0	0	0	0	0	0
1.65	0	0	0	0	0	0	0	0	0	0	0	0	0	0	0	0	0	0
1.655	0	0	0	0	0	0	0	0	0	0	0	0	0	0	0	0	0	0
1.66	0	0	0	0	0	0	0	0	0	0	0	0	0	0	0	0	0	0
1.665	0	0	0	0	0	0	0	0	0	0	0	0	0	0	0	0	0	0
1.67	0	0	0	0	0	0	0	0	0	-64.2061	48.0917	-2.82402	1.27003	0	-0.232606	5.82118	-4.36018	0.256036
1.675	0	0	0	0	0	0	0	0	0	-139.707	204.698	13.879	1.1604	0	-0.391033	3.15771	-4.62668	-0.3137
1.68	0	0	0	0	0	0	0	0	0	-229.221	459.39	46.8436	1.10701	0	-0.387672	1.41363	-2.8331	-0.288889
1.685	0	0	0	0	0	0	0	0	0	-310.248	797.996	104.069	1.08249	0	-0.37616	-1.09728	2.82234	0.36807
1.69	0	0	0	0	0	0	0	0	0	-351.708	1177.91	175.75	1.06534	0	-0.36468	-3.29604	11.0388	1.64705
1.695	0	0	0	0	0	0	0	0	0	-342.401	1577.53	231.179	1.04765	0	-0.352719	-2.29399	10.569	1.54884
1.7	0	0	0	0	0	0	0	0	0	-316.937	1992.17	240.484	1.02172	0	-0.341765	0.998826	-6.27832	-0.757883
1.705	0	0	0	0	0	0	0	0	0	-303.817	2388.47	185.063	0.99468	0	-0.33368	3.55283	-27.9308	-2.16412
1.71	0	0	0	0	0	0	0	0	0	-303.551	2713.32	67.7411	0.976295	0	-0.328384	4.34026	-38.7958	-0.96858
1.715	0	0	0	0	0	0	0	0	0	-322.309	2937.63	-84.1463	0.963602	0	-0.32544	3.91259	-35.6607	1.02147
1.72	0	0	0	0	0	0	0	0	0	-347.591	3060.13	-223.758	0.951199	0	-0.324107	2.66423	-23.4554	1.71507
1.725	0	0	0	0	0	0	0	0	0	-348.609	3097.72	-309.487	0.934468	0	-0.323766	1.12444	-9.9917	0.998252
1.73	0	0	0	0	0	0	0	0	0	-303.379	3077.37	-324.593	0.908311	0	-0.323804	0.0448969	-0.455419	0.0480364
1.735	0	0	0	0	0	0	0	0	0	-202.852	3021.61	-283.269	0.872248	0	-0.324055	-0.277203	4.12912	-0.387095
1.74	0	0	0	0	0	0	0	0	0	-63.9533	2949.32	-218.06	0.832297	0	-0.324272	-0.159906	7.37434	-0.545228
1.745	0	0	0	0	0	0	0	0	0	75.4687	2865.05	-159.945	0.794963	0	-0.324322	0.293557	11.1444	-0.62215
1.75	0	0	0	0	0	0	0	0	0	186.297	2756.69	-121.756	0.762717	0	-0.324228	0.74819	11.0712	-0.488984
1.755	0	0	0	0	0	0	0	0	0	270.404	2614.62	-93.8907	0.736055	0	-0.323988	0.406945	3.93489	-0.141301
1.76	0	0	0	0	0	0	0	0	0	342.156	2435.82	-57.5551	0.713175	0	-0.323547	-1.19182	-8.48458	0.200479
1.765	0	0	0	0	0	0	0	0	0	402.906	2211.93	-5.63475	0.689169	0	-0.323649	-4.65419	-25.5512	0.0650902
1.77	0	0	0	0	0	0	0	0	0	448.164	1928.72	47.7799	0.657541	0	-0.325909	-10.652	-45.842	-1.13564
1.775	0	0	0	0	0	0	0	0	0	474.979	1585.97	77.0478	0.608536	0	-0.332425	-18.7533	-62.6181	-3.04204
1.78	0	0	0	0	0	0	0	0	0	485.94	1208.86	60.3726	0.528909	0	-0.344263	-24.7938	-61.6786	-3.08035
1.785	0	0	0	0	0	0	0	0	0	481.202	841.027	-4.47153	0.407983	0	-0.350632	-15.804	-27.6217	0.146858
1.79	0	0	0	0	0	0	0	0	0	447.113	521.011	-96.5481	0.259915	0	-0.299608	25.1221	29.2742	-5.42478
1.795	0	0	0	0	0	0	0	0	0	373.625	269.885	-176.725	0.185921	0	-0.11054	71.212	51.4395	-33.6834
1.8	0	0	0	0	0	0	0	0	0	271.241	98.8717	-206.097	0.690246	0	0.200855	53.6943	19.5724	-40.7984
1.805	0	0	0	0	0	0	0	0	0	0	0	0	0	0	0	0	0	0
1.81	0	0	0	0	0	0	0	0	0	0	0	0	0	0	0	0	0	0
1.815	0	0	0	0	0	0	0	0	0	0	0	0	0	0	0	0	0	0
1.82	0	0	0	0	0	0	0	0	0	0	0	0	0	0	0	0	0	0
1.825	0	0	0	0	0	0	0	0	0	0	0	0	0	0	0	0	0	0
1.83	0	0	0	0	0	0	0	0	0	0	0	0	0	0	0	0	0	0
1.835	0	0	0	0	0	0	0	0	0	0	0	0	0	0	0	0	0	0
1.84	0	0	0	0	0	0	0	0	0	0	0	0	0	0	0	0	0	0
1.845	0	0	0	0	0	0	0	0	0	0	0	0	0	0	0	0	0	0
1.85	0	0	0	0	0	0	0	0	0	0	0	0	0	0	0	0	0	0
1.855	0	0	0	0	0	0	0	0	0	0	0	0	0	0	0	0	0	0
1.86	0	0	0	0	0	0	0	0	0	0	0	0	0	0	0	0	0	0
1.865	0	0	0	0	0	0	0	0	0	0	0	0	0	0	0	0	0	0
1.87	0	0	0	0	0	0	0	0	0	0	0	0	0	0	0	0	0	0
1.875	0	0	0	0	0	0	0	0	0	0	0	0	0	0	0	0	0	0
1.88	0	0	0	0	0	0	0	0	0	0	0	0	0	0	0	0	0	0
1.885	0	0	0	0	0	0	0	0	0	0	0	0	0	0	0	0	0	0
1.89	0	0	0	0	0	0	0	0	0	0	0	0	0	0	0	0	0	0
1.895	0	0	0	0	0	0	0	0	0	0	0	0	0	0	0	0	0	0
1.9	0	0	0	0	0	0	0	0	0	0	0	0	0	0	0	0	0	0
1.905	0	0	0	0	0	0	0	0	0	0	0	0	0	0	0	0	0	0
1.91	0	0	0	0	0	0	0	0	0	0	0	0	0	0	0	0	0	0
1.915	0	0	0	0	0	0	0	0	0	0	0	0	0	0	0	0	0	0
1.92	0	0	0	0	0	0	0	0	0	0	0	0	0	0	0	0	0	0
1.925	0	0	0	0	0	0	0	0	0	0	0	0	0	0	0	0	0	0
1.93	-53.1935	53.8864	8.41274	1.25586	0	-0.332085	-4.81702	4.87977	0.761829	0	0	0	0	0	0	0	0	0
1.935	-108.082	213.009	-25.3623	1.11921	0	-0.217527	-2.54338	5.01253	-0.596826	0	0	0	0	0	0	0	0	0
1.94	-181.541	468.775	-80.2286	1.07342	0	-0.22273	-1.36423	3.52272	-0.602897	0	0	0	0	0	0	0	0	0
1.945	-253.677	807.917	-145.064	1.05434	0	-0.233274	-0.18203	0.579733	-0.104093	0	0	0	0	0	0	0	0	0
